<svg width="27" height="22" viewBox="0 0 27 22" fill="none" xmlns="http://www.w3.org/2000/svg">
<path fill-rule="evenodd" clip-rule="evenodd" d="M13.4212 7.38781C10.7447 7.38781 8.57501 9.5575 8.57501 12.234C8.57501 14.9104 10.7447 17.0801 13.4212 17.0801C16.0976 17.0801 18.2673 14.9104 18.2673 12.234C18.2673 9.5575 16.0976 7.38781 13.4212 7.38781ZM6.95963 12.234C6.95963 8.66535 9.85255 5.77242 13.4212 5.77242C16.9898 5.77242 19.8827 8.66535 19.8827 12.234C19.8827 15.8026 16.9898 18.6955 13.4212 18.6955C9.85255 18.6955 6.95963 15.8026 6.95963 12.234Z" fill="#006B83"/>
<path fill-rule="evenodd" clip-rule="evenodd" d="M11.4019 2.54165C10.8935 2.54165 10.4147 2.78104 10.1096 3.18781L9.1404 4.48012C8.53026 5.29364 7.57269 5.77242 6.55578 5.77242H4.53655C3.19833 5.77242 2.11348 6.85727 2.11348 8.1955V17.8878C2.11348 19.226 3.19833 20.3109 4.53655 20.3109H22.3058C23.644 20.3109 24.7289 19.226 24.7289 17.8878V8.1955C24.7289 6.85727 23.644 5.77242 22.3058 5.77242H20.2866C19.2696 5.77242 18.3121 5.29364 17.7019 4.48012L16.7327 3.18781C16.4276 2.78104 15.9489 2.54165 15.4404 2.54165H11.4019ZM8.81732 2.21858C9.42747 1.40505 10.385 0.92627 11.4019 0.92627H15.4404C16.4573 0.92627 17.4149 1.40505 18.025 2.21858L18.9942 3.51089C19.2993 3.91765 19.7781 4.15704 20.2866 4.15704H22.3058C24.5362 4.15704 26.3442 5.96512 26.3442 8.1955V17.8878C26.3442 20.1182 24.5362 21.9263 22.3058 21.9263H4.53655C2.30617 21.9263 0.498093 20.1182 0.498093 17.8878V8.1955C0.498093 5.96512 2.30617 4.15704 4.53655 4.15704H6.55578C7.06424 4.15704 7.54302 3.91765 7.84809 3.51089L8.81732 2.21858Z" fill="#006B83"/>
</svg>
